<?xml version="1.0" encoding="utf-8"?>
<!DOCTYPE svg PUBLIC "-//W3C//DTD SVG 1.1//EN" "http://www.w3.org/Graphics/SVG/1.1/DTD/svg11.dtd">
<svg version="1.1" xmlns="http://www.w3.org/2000/svg" xmlns:xlink="http://www.w3.org/1999/xlink" x="0px" y="0px" viewBox="0 0 1000 1000" enable-background="new 0 0 1000 1000" xml:space="preserve">
<g><path d="M911.8,163.5c-46-47.8-108.2-74-175-74c-50.7,0-100.4,15.2-143.9,44.1c-37.2,24.7-68.9,59-93.1,100.5c-24.6-42.8-56.6-78.2-93.7-103.4c-43-29.2-92.3-44.7-142.3-44.7c-67,0-129.3,27.2-175.7,76.5C37.7,216.1,10.6,291.1,10,379.3c-0.5,70,24.8,129.5,77.4,181.8c44.6,44.3,103.1,77.6,154.8,107c18.7,10.6,36.3,20.6,52.8,30.8C402.5,765.3,473.7,854,483.3,884.9l9,29.1h17.6l8-29.7c8.2-30.2,87.2-120.5,187.7-187.7c19.7-13.2,41.4-25.9,64.3-39.3c51.8-30.4,105.3-61.8,147.4-104.7c49.4-50.5,73.2-107.7,72.7-175.1C989.3,290,962.3,216,911.8,163.5L911.8,163.5z M751.7,626.1c-23.4,13.7-45.5,26.7-66.1,40.4C610,717.1,534.7,789,500.6,840.2c-11.9-18.3,88.3-88.7,67.8-110.3c-27.7-29.2,156.7-71.7,93.2-110.8c-17-10.5,71.7-103.6,52.8-114.4c-100.7-57.3-66.1,91-65.1-44c1.3-176.9-37.1-139,66.9-139c92.3,0-278-140.2-232.8-40.8l17.5,570.3L644,710.6c114.4-29.9,23.4-72.1,116.1-72.1c103.7,0-82.2-311.7-80.9-138.4C680.2,629.3,851.5,567.6,751.7,626.1L751.7,626.1z"/></g>
</svg>